# xmcd
#
# Track frame offsets: 
#        150
#        17150
#        29762
#        51363
#        70965
#        88520
#        100762
#        114805
#        130070
#        148997
#        166792
#        190568
#        203670
#
# Disc length: 2916 seconds
#
# Revision: 0
# Processed by: cddbd v1.5.2PL0 Copyright (c) Steve Scherf et al.
# Submitted via: ExactAudioCopy v1.0b1
#
DISCID=ad0b620d
DTITLE=Eldkvarn - Legender Ur Den Svarta Hatten {Rem and Exp 2010)
DYEAR=1991
DGENRE=Rock
TTITLE0=Rosen I Sevilla
TTITLE1=Du Och Jag
TTITLE2=Vi Föll Genom Natten
TTITLE3=Bom, Bom, Bom
TTITLE4=Salta Skor
TTITLE5=Den Stora Kärleken
TTITLE6=Mina Stjärnor Har Slocknat
TTITLE7=Mannen I Den Svarta Hatten
TTITLE8=Skepp Ohoj
TTITLE9=Madelene, Jag Kommer Hem
TTITLE10=På Andra Sidan Fredagkväll
TTITLE11=En Sten Som Rullar
TTITLE12=När Stillheten Drar Sin Vagn (Extraspår)
EXTD=
EXTT0=
EXTT1=
EXTT2=
EXTT3=
EXTT4=
EXTT5=
EXTT6=
EXTT7=
EXTT8=
EXTT9=
EXTT10=
EXTT11=
EXTT12=
PLAYORDER=
